<svg width="32" height="32" viewBox="0 0 32 32" fill="none" xmlns="http://www.w3.org/2000/svg">
<g clip-path="url(#clip0_937_4)">
<path d="M-0.0268555 15.9731C-0.0268555 3.97311 3.97311 -0.0268555 15.9731 -0.0268555C27.9731 -0.0268555 31.9731 3.97311 31.9731 15.9731C31.9731 27.9731 27.9731 31.9731 15.9731 31.9731C3.97311 31.9731 -0.0268555 27.9731 -0.0268555 15.9731Z" fill="white"/>
<path d="M10.0112 23.8667V7.57581H16.534C17.7324 7.57581 18.7321 7.75346 19.5328 8.10876C20.3336 8.46406 20.9355 8.95725 21.3385 9.58831C21.7415 10.2141 21.943 10.9353 21.943 11.7519C21.943 12.3883 21.8158 12.9478 21.5612 13.4304C21.3067 13.9076 20.9567 14.3 20.5112 14.6076C20.0711 14.9099 19.5673 15.1247 18.9999 15.2519V15.411C19.6203 15.4375 20.201 15.6125 20.7419 15.936C21.2881 16.2595 21.7309 16.7129 22.0703 17.2963C22.4097 17.8743 22.5794 18.5637 22.5794 19.3644C22.5794 20.2288 22.3646 21.0004 21.9351 21.6792C21.5109 22.3527 20.8824 22.8857 20.0499 23.2781C19.2173 23.6705 18.1912 23.8667 16.9715 23.8667H10.0112ZM13.4555 21.0508H16.2635C17.2234 21.0508 17.9234 20.8678 18.3635 20.5019C18.8037 20.1307 19.0237 19.6375 19.0237 19.0224C19.0237 18.5716 18.915 18.1739 18.6976 17.8292C18.4802 17.4845 18.1699 17.2141 17.7669 17.0178C17.3692 16.8216 16.8946 16.7235 16.343 16.7235H13.4555V21.0508ZM13.4555 14.3929H16.009C16.4809 14.3929 16.8999 14.3107 17.2658 14.1463C17.637 13.9766 17.9287 13.7379 18.1408 13.4304C18.3582 13.1228 18.4669 12.7542 18.4669 12.3247C18.4669 11.736 18.2574 11.2614 17.8385 10.9008C17.4249 10.5402 16.8362 10.3599 16.0726 10.3599H13.4555V14.3929Z" fill="#0A0A0A"/>
</g>
<defs>
<clipPath id="clip0_937_4">
<rect width="32" height="32" fill="white"/>
</clipPath>
</defs>
</svg>
